# xmcd
#
# Track frame offsets: 
#        150
#        692
#        31182
#        54585
#        78390
#        91592
#        107625
#        129967
#        148755
#        169765
#        196990
#        217010
#
# Disc length: 3282 seconds
#
# Revision: 5
# Processed by: cddbd v1.5.2PL0 Copyright (c) Steve Scherf et al.
# Submitted via: ExactAudioCopy v0.99pb5
#
DISCID=970cd00c
DTITLE=Satan and Adam - Mother Mojo (Flying Fish) {623}
DYEAR=1993
DGENRE=Blues
TTITLE0=Intro
TTITLE1=Mother Mojo
TTITLE2=Seventh Avenue
TTITLE3=Ain't Nobody Better Than Nobody
TTITLE4=Heartbreak
TTITLE5=Watermelon Man
TTITLE6=Thunky Fing
TTITLE7=Silly Little Things
TTITLE8=Freedom For My People
TTITLE9=Crawdad Hole
TTITLE10=Mr. Cantrell
TTITLE11=Cry To Me
EXTD=
EXTT0=
EXTT1=
EXTT2=
EXTT3=
EXTT4=
EXTT5=
EXTT6=
EXTT7=
EXTT8=
EXTT9=
EXTT10=
EXTT11=
PLAYORDER=
